Coordinates
version=1
nRows=22
nColumns=24
inDegrees=yes

Units are S.I. units (second, meters, Newtons, ...)
Angles are in degrees.

endheader
time	pelvis_tilt	pelvis_list	pelvis_rotation	pelvis_tx	pelvis_ty	pelvis_tz	hip_flexion_r	hip_adduction_r	hip_rotation_r	knee_angle_r	ankle_angle_r	subtalar_angle_r	mtp_angle_r	hip_flexion_l	hip_adduction_l	hip_rotation_l	knee_angle_l	ankle_angle_l	subtalar_angle_l	mtp_angle_l	lumbar_extension	lumbar_bending	lumbar_rotation
      5.12000000	     13.53579056	     -8.69630564	      6.24856381	      1.31017488	      0.92156397	     -0.21687387	    -29.66768801	     12.07716049	      2.33181966	     -9.67972493	     21.82458731	      5.84941263	      0.00000000	      9.94538655	     -7.86203517	     10.17801426	     -2.68610534	     10.95621682	      2.60784089	      0.00000000	    -27.87119968	     10.49722412	      0.31140559
      5.12500000	     13.47225846	     -8.65654206	      5.98837054	      1.31759179	      0.92063394	     -0.21696942	    -29.86433633	     11.86386804	      2.37157582	    -10.22635476	     21.76450851	      6.32482705	      0.00000000	      9.96229248	     -7.82037205	     10.30486672	     -2.51708390	     10.66644375	      2.33284615	      0.00000000	    -27.82225741	     10.28278104	      0.44159489
      5.13000000	     13.43312933	     -8.53127553	      5.73359358	      1.32506330	      0.91979655	     -0.21707982	    -30.07518848	     11.56969122	      2.35884129	    -10.80410839	     21.69631958	      6.82726557	      0.00000000	      9.94316271	     -7.68385186	     10.40834361	     -2.47393716	     10.40962383	      2.05092664	      0.00000000	    -27.79372527	      9.97635538	      0.54218121
      5.13500000	     13.41642745	     -8.33534270	      5.48980553	      1.33257820	      0.91904919	     -0.21722193	    -30.29418159	     11.21019113	      2.29766291	    -11.41452164	     21.59911959	      7.36121346	      0.00000000	      9.89582301	     -7.46458803	     10.49606019	     -2.55410245	     10.18250802	      1.75563521	      0.00000000	    -27.78255261	      9.59902207	      0.60265704
      5.14000000	     13.41044248	     -8.07813680	      5.25936894	      1.34012056	      0.91837720	     -0.21739612	    -30.50304639	     10.79569802	      2.18198604	    -12.06415226	     21.46622120	      7.90592421	      0.00000000	      9.83753837	     -7.17075950	     10.57190512	     -2.75306803	      9.97440531	      1.45691436	      0.00000000	    -27.77841522	      9.16711698	      0.61698261
      5.14500000	     13.50503889	     -7.71818910	      5.08016537	      1.34767883	      0.91784035	     -0.21766712	    -30.80133705	     10.30408292	      1.94696868	    -12.74505900	     21.32051313	      8.49427493	      0.00000000	      9.66982477	     -6.75896552	     10.67132142	     -3.05932984	      9.80993158	      1.12906013	      0.00000000	    -27.88243505	      8.64407647	      0.56933749
      5.15000000	     13.40936600	     -7.36518852	      4.83969008	      1.35532375	      0.91720113	     -0.21783277	    -30.85701331	      9.79676825	      1.81503047	    -13.51437566	     21.14354832	      8.95465458	      0.00000000	      9.70928221	     -6.33928650	     10.71431808	     -3.48714047	      9.66545342	      0.85653917	      0.00000000	    -27.75816517	      8.08785987	      0.56465330
      5.15500000	     13.41567056	     -6.94613848	      4.64688116	      1.36295528	      0.91672250	     -0.21820610	    -30.99886272	      9.22322404	      1.50203800	    -14.31187316	     20.90604434	      9.65142875	      0.00000000	      9.64104904	     -5.83011236	     10.77116775	     -4.00398918	      9.49213874	      0.48446218	      0.00000000	    -27.74893226	      7.52145947	      0.46178507
      5.16000000	     13.40492834	     -6.46186432	      4.47073157	      1.37066020	      0.91626091	     -0.21856422	    -31.10212537	      8.60459375	      1.19149645	    -15.15431965	     20.64522680	     10.24827550	      0.00000000	      9.59087515	     -5.24397039	     10.84157242	     -4.61443265	      9.36998244	      0.15397466	      0.00000000	    -27.70477179	      6.87367391	      0.34247623
      5.16500000	     13.36985226	     -5.94294480	      4.29346387	      1.37840668	      0.91583774	     -0.21896108	    -31.15566098	      7.94843098	      0.88104366	    -16.03840340	     20.32838595	     10.84497017	      0.00000000	      9.56896568	     -4.60877952	     10.88462559	     -5.31259827	      9.24297443	     -0.16031774	      0.00000000	    -27.62478670	      6.19586507	      0.20138196
      5.17000000	     13.33149538	     -5.38094090	      4.13165300	      1.38619277	      0.91544874	     -0.21939756	    -31.17448126	      7.25419623	      0.52039321	    -16.98346617	     19.97478657	     11.45822576	      0.00000000	      9.54872411	     -3.91712865	     10.92531479	     -6.07746996	      9.13786682	     -0.47883572	      0.00000000	    -27.53316547	      5.47484000	      0.04862103
      5.17500000	     13.39283193	     -4.77587472	      4.05176707	      1.39392971	      0.91516120	     -0.22002063	    -31.27070565	      6.54341109	      0.01662422	    -17.97003039	     19.56474632	     12.17912787	      0.00000000	      9.43084052	     -3.16038926	     11.08027239	     -6.89894379	      9.04173254	     -0.85826904	      0.00000000	    -27.55852121	      4.75824820	     -0.17290553
      5.18000000	     13.31221836	     -4.17249832	      3.87661874	      1.40177890	      0.91484412	     -0.22046987	    -31.17362493	      5.79759373	     -0.33367927	    -19.04474137	     19.07278753	     12.72568091	      0.00000000	      9.43928626	     -2.41549223	     11.04343577	     -7.74846462	      8.93568277	     -1.11438548	      0.00000000	    -27.40925818	      3.99348146	     -0.36732157
      5.18500000	     13.32294822	     -3.53013865	      3.79470155	      1.40959455	      0.91459788	     -0.22115265	    -31.15008640	      5.03675207	     -0.85467283	    -20.15375723	     18.53237724	     13.43106056	      0.00000000	      9.35776075	     -1.60305377	     11.17125350	     -8.64163677	      8.85492111	     -1.47384351	      0.00000000	    -27.36220289	      3.23939429	     -0.57465679
      5.19000000	     13.24465828	     -2.89268839	      3.64411393	      1.41745108	      0.91435254	     -0.22170063	    -30.98429071	      4.25471981	     -1.23936854	    -21.34515608	     17.92038397	     13.98449282	      0.00000000	      9.35552811	     -0.80776915	     11.13228571	     -9.55220249	      8.77273432	     -1.71047030	      0.00000000	    -27.21269873	      2.45564803	     -0.79110790
      5.19500000	     13.17320829	     -2.24416334	      3.51578433	      1.42533934	      0.91414349	     -0.22232182	    -30.79562605	      3.46022536	     -1.66781579	    -22.58333518	     17.22530416	     14.56055863	      0.00000000	      9.33329950	      0.00743057	     11.13088359	    -10.46778225	      8.70774847	     -1.96136799	      0.00000000	    -27.06076903	      1.67453468	     -0.98540449
      5.20000000	     13.15402372	     -1.59092642	      3.44281490	      1.43319791	      0.91401659	     -0.22309385	    -30.63421605	      2.67044261	     -2.16577651	    -23.85457339	     16.41574313	     15.19687205	      0.00000000	      9.24635509	      0.84372334	     11.22114140	    -11.38074186	      8.63571115	     -2.28144931	      0.00000000	    -26.96927577	      0.92588927	     -1.20332145
      5.20500000	     13.06093391	     -0.94659074	      3.30040364	      1.44108461	      0.91388002	     -0.22368158	    -30.34051490	      1.86648444	     -2.52831995	    -25.20874499	     15.55761309	     15.65226989	      0.00000000	      9.21790880	      1.64670278	     11.14807296	    -12.27730886	      8.61600640	     -2.43821836	      0.00000000	    -26.78946713	      0.14229750	     -1.38553122
      5.21000000	     12.98086205	     -0.31109965	      3.16913820	      1.44895696	      0.91380092	     -0.22436094	    -30.02149056	      1.05682621	     -2.90914321	    -26.60946338	     14.59878501	     16.15975171	      0.00000000	      9.15705660	      2.44832961	     11.11549086	    -13.14698455	      8.59469178	     -2.65145388	      0.00000000	    -26.62396528	     -0.61617806	     -1.54740611
      5.21500000	     12.90866740	      0.31162020	      3.04262849	      1.45679474	      0.91377370	     -0.22504997	    -29.66726370	      0.25514726	     -3.26855239	    -28.05815617	     13.54838592	     16.61702774	      0.00000000	      9.06861557	      3.23428576	     11.08730583	    -13.97963896	      8.59641460	     -2.85803391	      0.00000000	    -26.46965470	     -1.35449220	     -1.70645271
      5.22000000	     12.83575486	      0.92103000	      2.90951916	      1.46462380	      0.91379811	     -0.22572614	    -29.27374692	     -0.54115924	     -3.58617860	    -29.53983160	     12.40584022	     17.01592204	      0.00000000	      8.96113537	      4.00092382	     11.04331906	    -14.77637245	      8.62192994	     -3.03991698	      0.00000000	    -26.30898495	     -2.08109141	     -1.84490159
      5.22500000	     12.76582069	      1.51117197	      2.76443916	      1.47241793	      0.91387668	     -0.22639745	    -28.83665239	     -1.33225712	     -3.86583917	    -31.06321534	     11.17870205	     17.36358180	      0.00000000	      8.82634721	      4.74204628	     10.99629937	    -15.51994642	      8.67359721	     -3.21440341	      0.00000000	    -26.15156162	     -2.78435716	     -1.96389026
